<svg width="191" height="186" viewBox="0 0 191 186" fill="none" xmlns="http://www.w3.org/2000/svg">
<path d="M96.2958 38.7319C96.2958 38.7319 98.1954 64.1873 105.595 74.8103C112.994 85.4333 130.724 88.1605 130.724 88.1605C130.724 88.1605 112.994 90.8877 105.595 101.511C98.1954 112.134 96.2958 137.589 96.2958 137.589C96.2958 137.589 94.3962 112.134 86.9969 101.511C79.5977 90.8877 61.8672 88.1605 61.8672 88.1605C61.8672 88.1605 79.5977 85.4333 86.9969 74.8103C94.3962 64.1873 96.2958 38.7319 96.2958 38.7319Z" fill="white" fill-opacity="0.25"/>
<path d="M156.546 80.0464C156.546 80.0464 158.445 105.502 165.845 116.125C173.244 126.748 190.974 129.475 190.974 129.475C190.974 129.475 173.244 132.202 165.845 142.825C158.445 153.448 156.546 178.904 156.546 178.904C156.546 178.904 154.646 153.448 147.247 142.825C139.848 132.202 122.117 129.475 122.117 129.475C122.117 129.475 139.848 126.748 147.247 116.125C154.646 105.502 156.546 80.0464 156.546 80.0464Z" fill="white" fill-opacity="0.1"/>
<path d="M35.1864 105.007C35.1864 105.007 37.086 138.885 44.4852 153.022C51.8845 167.16 69.615 170.789 69.615 170.789C69.615 170.789 51.8845 174.419 44.4852 188.557C37.086 202.694 35.1864 236.572 35.1864 236.572C35.1864 236.572 33.2868 202.694 25.8875 188.557C18.4883 174.419 0.757812 170.789 0.757812 170.789C0.757812 170.789 18.4883 167.16 25.8875 153.022C33.2868 138.885 35.1864 105.007 35.1864 105.007Z" fill="white" fill-opacity="0.1"/>
<path d="M148.369 -50.7822C148.369 -50.7822 149.817 -16.9048 155.459 -2.76723C161.101 11.3704 174.621 14.9999 174.621 14.9999C174.621 14.9999 161.101 18.6295 155.459 32.7671C149.817 46.9047 148.369 80.7821 148.369 80.7821C148.369 80.7821 146.921 46.9047 141.279 32.7671C135.637 18.6295 122.117 14.9999 122.117 14.9999C122.117 14.9999 135.637 11.3704 141.279 -2.76723C146.921 -16.9048 148.369 -50.7822 148.369 -50.7822Z" fill="white" fill-opacity="0.1"/>
<path d="M35.619 17.2144C35.619 17.2144 37.0674 38.2371 42.7093 47.0103C48.3513 55.7834 61.8708 58.0358 61.8708 58.0358C61.8708 58.0358 48.3513 60.2881 42.7093 69.0613C37.0674 77.8344 35.619 98.8572 35.619 98.8572C35.619 98.8572 34.1705 77.8344 28.5286 69.0613C22.8867 60.2881 9.36719 58.0358 9.36719 58.0358C9.36719 58.0358 22.8867 55.7834 28.5286 47.0103C34.1705 38.2371 35.619 17.2144 35.619 17.2144Z" fill="white" fill-opacity="0.1"/>
</svg>
